<svg width="25" height="25" viewBox="0 0 25 25" fill="none" xmlns="http://www.w3.org/2000/svg">
<path d="M12.0312 5.78125L12.4609 6.25L12.9297 5.82031C14.2188 4.53125 16.0547 3.94531 17.8125 4.25781C20.5078 4.6875 22.5 7.03125 22.5 9.76562V9.96094C22.5 11.6016 21.7969 13.1641 20.625 14.2578L13.5547 20.8594C13.2812 21.1328 12.8906 21.25 12.5 21.25C12.0703 21.25 11.6797 21.1328 11.4062 20.8594L4.33594 14.2578C3.16406 13.1641 2.5 11.6016 2.5 9.96094V9.76562C2.5 7.03125 4.45312 4.6875 7.14844 4.25781C8.90625 3.94531 10.7422 4.53125 12.0312 5.78125C12.0312 5.82031 11.9922 5.78125 12.0312 5.78125ZM12.4609 8.90625L10.7031 7.10938C9.84375 6.28906 8.63281 5.89844 7.46094 6.09375C5.66406 6.40625 4.375 7.92969 4.375 9.76562V9.96094C4.375 11.0938 4.80469 12.1484 5.625 12.8906L12.5 19.2969L19.3359 12.8906C20.1562 12.1484 20.625 11.0938 20.625 9.96094V9.76562C20.625 7.92969 19.2969 6.40625 17.5 6.09375C16.3281 5.89844 15.1172 6.28906 14.2578 7.10938L12.4609 8.90625Z" fill="white"/>
</svg>
