<svg width="20" height="20" viewBox="0 0 20 20" fill="none" xmlns="http://www.w3.org/2000/svg">
<path d="M17.6562 2.15625C17.4375 2 17.125 1.96875 16.875 2.125L2.375 10.375C2.125 10.5 1.96875 10.7812 2 11.0625C2 11.3438 2.1875 11.5938 2.4375 11.7188L7.25 13.7188V17.25C7.25 17.5312 7.375 17.7812 7.625 17.9375C7.75 17.9688 7.875 18 7.96875 18C8.09375 18 8.25 17.9688 8.375 17.9062L11.8438 15.6562L14.9062 16.9688C15 17 15.0938 17.0312 15.2188 17.0312C15.3438 17.0312 15.4688 16.9688 15.5625 16.9062C15.7812 16.8125 15.9062 16.5938 15.9375 16.375L17.9375 2.875C18.0312 2.59375 17.9062 2.3125 17.6562 2.15625ZM13.5312 5.75L7.6875 12.2812L4.4375 10.9062L13.5312 5.75ZM8.71875 15.875V14.3438L10.1562 14.9688L8.71875 15.875ZM14.625 15.1875L9.125 12.875L16.125 5.09375L14.625 15.1875Z" fill="#1E2832"/>
</svg>
